<svg width="18" height="20" viewBox="0 0 18 20" fill="none" xmlns="http://www.w3.org/2000/svg">
<path d="M17.2245 8.70123L2.48753 0.226436C2.23907 0.0834134 1.9545 0.0053347 1.66321 0.000263788C1.37192 -0.00480712 1.08446 0.0633135 0.830541 0.19759C0.579036 0.329782 0.369526 0.522562 0.223555 0.756107C0.0775834 0.989651 0.000420239 1.25553 0 1.5264V18.4741C0.00189507 18.8804 0.175348 19.2694 0.482229 19.5555C0.78911 19.8416 1.2043 20.0015 1.63653 20C1.93822 19.9999 2.23405 19.9217 2.49162 19.774L17.2245 11.2992C17.4613 11.1636 17.6571 10.9729 17.7929 10.7456C17.9287 10.5182 18 10.2619 18 10.0012C18 9.74048 17.9287 9.48415 17.7929 9.25683C17.6571 9.02951 17.4613 8.83884 17.2245 8.70315V8.70123ZM1.63653 18.4558V1.5389L16.348 10.0002L1.63653 18.4558Z" fill="#1C120D"/>
</svg>
